<svg width="32" height="25" viewBox="0 0 32 25" fill="none" xmlns="http://www.w3.org/2000/svg">
<path id="Vector" d="M26.9877 2.31517C24.9805 1.39408 22.8298 0.715864 20.5798 0.327876C20.5385 0.320238 20.4973 0.338579 20.4774 0.376767C20.2009 0.868625 19.8939 1.5117 19.6801 2.01578C17.2605 1.65376 14.8531 1.65376 12.4824 2.01578C12.2671 1.49948 11.9493 0.868625 11.6713 0.376767C11.6499 0.340106 11.6087 0.321766 11.569 0.327876C9.32051 0.715864 7.16825 1.39408 5.1611 2.31517C5.1443 2.32281 5.12902 2.33503 5.11833 2.35183C1.03682 8.44965 -0.0813514 14.3978 0.467025 20.2726C0.47008 20.3016 0.485358 20.3291 0.508271 20.3459C3.20127 22.324 5.81029 23.5247 8.3704 24.3205C8.41164 24.3327 8.45441 24.3174 8.48038 24.2838C9.08527 23.4574 9.62602 22.5852 10.0889 21.6672C10.1163 21.6137 10.0888 21.5496 10.0338 21.5282C9.17691 21.2028 8.36274 20.8072 7.5776 20.3581C7.51497 20.3215 7.51041 20.2329 7.56693 20.1901C7.7319 20.0664 7.89686 19.9381 8.0542 19.8082C8.08322 19.7838 8.12292 19.7792 8.15653 19.7945C13.3088 22.1469 18.8873 22.1469 23.9785 19.7945C24.0121 19.7777 24.0518 19.7838 24.0808 19.8067C24.2382 19.9365 24.4031 20.0664 24.5696 20.1901C24.6261 20.2329 24.6231 20.3215 24.5605 20.3581C23.7769 20.8164 22.9612 21.2044 22.1027 21.5282C22.0462 21.5496 22.0217 21.6137 22.0492 21.6687C22.5228 22.5837 23.062 23.4559 23.6562 24.2838C23.6806 24.319 23.7249 24.3342 23.7662 24.322C26.3385 23.5262 28.9475 22.3256 31.6405 20.3474C31.6634 20.3306 31.6787 20.3031 31.6817 20.2756C32.3386 13.4843 30.5819 7.58508 27.0274 2.35489C27.0182 2.33808 27.0045 2.32434 26.9862 2.3167L26.9877 2.31517ZM10.8556 16.6952C9.30368 16.6952 8.02671 15.2715 8.02671 13.5225C8.02671 11.7735 9.28076 10.3499 10.8556 10.3499C12.4305 10.3499 13.7105 11.7873 13.6846 13.5225C13.6846 15.2715 12.4305 16.6952 10.8556 16.6952ZM21.3175 16.6952C19.7656 16.6952 18.4886 15.2715 18.4886 13.5225C18.4886 11.7735 19.7427 10.3499 21.3175 10.3499C22.8924 10.3499 24.1725 11.7873 24.1465 13.5225C24.1465 15.2715 22.9062 16.6952 21.3175 16.6952Z" fill="#F0F5FC"/>
</svg>
