<svg width="26" height="25" viewBox="0 0 26 25" fill="none" xmlns="http://www.w3.org/2000/svg">
<g id="Group">
<path id="Vector" d="M19.3912 0.326172H6.87097C3.41202 0.326172 0.598083 3.14011 0.598083 6.59906V18.0533C0.598083 21.5122 3.41202 24.3262 6.87097 24.3262H19.3912C22.8502 24.3262 25.6641 21.5122 25.6641 18.0533V6.59906C25.6641 3.14011 22.8502 0.326172 19.3912 0.326172ZM2.81096 6.59906C2.81096 4.36067 4.63258 2.53905 6.87097 2.53905H19.3912C21.6296 2.53905 23.4512 4.36067 23.4512 6.59906V18.0533C23.4512 20.2917 21.6296 22.1133 19.3912 22.1133H6.87097C4.63258 22.1133 2.81096 20.2917 2.81096 18.0533V6.59906Z" fill="#F0F5FC"/>
<path id="Vector_2" d="M13.1311 18.1595C16.3476 18.1595 18.966 15.5426 18.966 12.3246C18.966 9.10664 16.3491 6.48975 13.1311 6.48975C9.91315 6.48975 7.29626 9.10664 7.29626 12.3246C7.29626 15.5426 9.91315 18.1595 13.1311 18.1595ZM13.1311 8.70404C15.1285 8.70404 16.7531 10.3286 16.7531 12.326C16.7531 14.3234 15.1285 15.948 13.1311 15.948C11.1337 15.948 9.50914 14.3234 9.50914 12.326C9.50914 10.3286 11.1337 8.70404 13.1311 8.70404Z" fill="#F0F5FC"/>
<path id="Vector_3" d="M19.5061 7.43282C20.3722 7.43282 21.0782 6.72828 21.0782 5.86071C21.0782 4.99313 20.3736 4.28857 19.5061 4.28857C18.6385 4.28857 17.9339 4.99313 17.9339 5.86071C17.9339 6.72828 18.6385 7.43282 19.5061 7.43282Z" fill="#F0F5FC"/>
</g>
</svg>
