<svg width="22" height="25" viewBox="0 0 22 25" fill="none" xmlns="http://www.w3.org/2000/svg">
<path id="Vector" d="M21.0329 6.13738V10.274C20.3099 10.2034 19.3705 10.0392 18.3314 9.65849C16.9745 9.16118 15.9646 8.48121 15.303 7.95473V16.3154L15.2861 16.2893C15.2969 16.4551 15.303 16.624 15.303 16.7943C15.303 20.9463 11.9246 24.3262 7.77116 24.3262C3.61766 24.3262 0.239304 20.9463 0.239304 16.7943C0.239304 12.6424 3.61766 9.26095 7.77116 9.26095C8.17791 9.26095 8.57699 9.29318 8.96686 9.35612V13.4329C8.59234 13.2993 8.19019 13.2272 7.77116 13.2272C5.80492 13.2272 4.204 14.8266 4.204 16.7943C4.204 18.7621 5.80492 20.3615 7.77116 20.3615C9.73739 20.3615 11.3383 18.7606 11.3383 16.7943C11.3383 16.7207 11.3368 16.647 11.3322 16.5733V0.326172H15.4657C15.4811 0.676134 15.4949 1.02916 15.5102 1.37912C15.5379 2.0683 15.7834 2.72987 16.2117 3.27169C16.7136 3.90868 17.455 4.64851 18.4956 5.23945C19.4703 5.79049 20.3851 6.0284 21.0329 6.14045V6.13738Z" fill="#F0F5FC"/>
</svg>
