<svg width="36" height="25" viewBox="0 0 36 25" fill="none" xmlns="http://www.w3.org/2000/svg">
<path id="Vector" d="M34.9459 6.75992C34.7345 4.71919 34.2796 2.46325 32.6051 1.2777C31.3081 0.358336 29.6034 0.324348 28.012 0.326235C24.6479 0.326235 21.282 0.331906 17.9179 0.333794C14.6822 0.33757 11.4464 0.339467 8.21071 0.343242C6.85904 0.343242 5.54511 0.239399 4.28972 0.824621C3.21178 1.32678 2.36792 2.28201 1.8601 3.34485C1.15595 4.82301 1.0087 6.49752 0.923752 8.13237C0.767064 11.1095 0.784054 14.0941 0.970948 17.0693C1.10876 19.2403 1.458 21.6397 3.13627 23.0234C4.62386 24.2486 6.72311 24.309 8.65245 24.3109C14.7765 24.3166 20.9025 24.3222 27.0285 24.326C27.8138 24.3279 28.6331 24.3128 29.4335 24.226C31.008 24.0561 32.5088 23.6049 33.5206 22.4382C34.5419 21.2621 34.8044 19.6254 34.9592 18.0755C35.3367 14.3149 35.3329 10.5186 34.9459 6.75992ZM14.3763 17.5978V7.05441L23.5058 12.3252L14.3763 17.5978Z" fill="#F0F5FC"/>
</svg>
