<svg width="266" height="49" viewBox="0 0 266 49" fill="none" xmlns="http://www.w3.org/2000/svg">
<path d="M6.67571 42.5L26.0968 6.5H258.824L239.403 42.5H6.67571Z" stroke="#F0F5FC" stroke-width="2"/>
<path d="M50.068 19.3V22.1H46.884V30.5H43.844V22.1H40.66V19.3H50.068ZM53.1748 22.356C55.5748 22.356 57.2228 24.052 57.2308 26.532C57.2308 26.804 57.2068 27.22 57.1748 27.38H51.9988C52.1908 28.02 52.6708 28.34 53.4227 28.34C53.9348 28.34 54.4868 28.124 54.9188 27.7L56.8708 29.332C56.1028 30.164 54.8548 30.708 53.2868 30.708C50.7508 30.708 49.0548 29.06 49.0548 26.604C49.0548 24.092 50.7348 22.356 53.1748 22.356ZM53.1908 24.748C52.5828 24.748 52.1908 25.044 52.0068 25.66H54.3908C54.1828 25.044 53.7828 24.748 53.1908 24.748ZM54.0708 21.676H51.4388L53.2068 18.908H56.3908L54.0708 21.676ZM61.1065 18.98V30.5H58.2585V18.98H61.1065ZM66.2529 22.356C68.6529 22.356 70.3009 24.052 70.3089 26.532C70.3089 26.804 70.2849 27.22 70.2529 27.38H65.0769C65.2689 28.02 65.7489 28.34 66.5009 28.34C67.0129 28.34 67.5649 28.124 67.9969 27.7L69.9489 29.332C69.1809 30.164 67.9329 30.708 66.3649 30.708C63.8289 30.708 62.1329 29.06 62.1329 26.604C62.1329 24.092 63.8129 22.356 66.2529 22.356ZM66.2689 24.748C65.6609 24.748 65.2689 25.044 65.0849 25.66H67.4689C67.2609 25.044 66.8609 24.748 66.2689 24.748ZM67.1489 21.676H64.5169L66.2849 18.908H69.4689L67.1489 21.676ZM75.2966 22.356C76.8806 22.356 78.0726 23.092 78.8566 24.276L76.5206 25.748C76.1846 25.244 75.7926 25.004 75.2326 25.004C74.5366 25.004 73.8886 25.54 73.8886 26.532C73.8886 27.532 74.5126 28.06 75.2086 28.06C75.7446 28.06 76.1766 27.82 76.5206 27.308L78.8646 28.804C78.0886 29.972 76.8806 30.708 75.2966 30.708C72.7606 30.708 70.9766 28.98 70.9766 26.532C70.9766 24.084 72.7606 22.356 75.2966 22.356ZM82.5284 18.964V23.196C82.9764 22.636 83.6404 22.356 84.5364 22.356C86.1764 22.356 87.3684 23.516 87.3684 25.34V30.5H84.5204V26.236C84.5204 25.444 84.1444 25.02 83.5204 25.02C82.9684 25.02 82.5284 25.38 82.5284 26.252V30.5H79.6804V18.964H82.5284ZM96.8713 22.572V30.5H94.1353V29.804C93.6633 30.332 92.9753 30.708 91.9753 30.708C89.8553 30.708 88.3673 28.828 88.3673 26.524C88.3673 24.236 89.8553 22.356 91.9833 22.356C92.9753 22.356 93.6633 22.74 94.1353 23.284V22.572H96.8713ZM92.7113 25.004C91.8953 25.004 91.3033 25.644 91.3033 26.532C91.3033 27.42 91.8953 28.06 92.7113 28.06C93.5273 28.06 94.1193 27.42 94.1193 26.532C94.1193 25.644 93.5273 25.004 92.7113 25.004ZM103.083 22.356C103.395 22.356 103.683 22.412 103.795 22.436L103.635 25.284C103.307 25.196 102.843 25.1 102.387 25.1C101.595 25.1 101.115 25.38 101.115 26.252V30.5H98.2585V22.572H100.979V23.372C101.419 22.668 102.115 22.356 103.083 22.356ZM107.788 22.356C108.764 22.356 109.444 22.732 109.9 23.268V22.572H112.636V29.652C112.636 32.308 110.892 33.86 108.324 33.86C106.94 33.86 105.572 33.516 104.58 32.82L105.588 30.58C106.348 31.156 107.148 31.388 108.068 31.388C108.86 31.388 109.86 30.956 109.86 29.788V29.428C109.404 29.94 108.74 30.292 107.788 30.292C105.644 30.292 104.18 28.516 104.18 26.324C104.18 24.132 105.644 22.356 107.788 22.356ZM108.5 24.94C107.716 24.94 107.132 25.516 107.132 26.324C107.132 27.132 107.716 27.708 108.5 27.708C109.284 27.708 109.836 27.132 109.836 26.324C109.836 25.516 109.284 24.94 108.5 24.94ZM117.784 22.356C120.184 22.356 121.832 24.052 121.84 26.532C121.84 26.804 121.816 27.22 121.784 27.38H116.608C116.8 28.02 117.28 28.34 118.032 28.34C118.544 28.34 119.096 28.124 119.528 27.7L121.48 29.332C120.712 30.164 119.464 30.708 117.896 30.708C115.36 30.708 113.664 29.06 113.664 26.604C113.664 24.092 115.344 22.356 117.784 22.356ZM117.8 24.748C117.192 24.748 116.8 25.044 116.616 25.66H119C118.792 25.044 118.392 24.748 117.8 24.748ZM127.692 22.356C128.004 22.356 128.292 22.412 128.404 22.436L128.244 25.284C127.916 25.196 127.452 25.1 126.996 25.1C126.204 25.1 125.724 25.38 125.724 26.252V30.5H122.868V22.572H125.588V23.372C126.028 22.668 126.724 22.356 127.692 22.356ZM135.435 18.98V30.5H132.587V18.98H135.435ZM137.269 18.98H140.333L138.917 24.532H136.565L137.269 18.98ZM148.324 22.572V30.5H145.588V29.804C145.116 30.332 144.428 30.708 143.428 30.708C141.308 30.708 139.82 28.828 139.82 26.524C139.82 24.236 141.308 22.356 143.436 22.356C144.428 22.356 145.116 22.74 145.588 23.284V22.572H148.324ZM144.164 25.004C143.348 25.004 142.756 25.644 142.756 26.532C142.756 27.42 143.348 28.06 144.164 28.06C144.98 28.06 145.572 27.42 145.572 26.532C145.572 25.644 144.98 25.004 144.164 25.004ZM154.592 22.356C156.72 22.356 158.208 24.236 158.208 26.524C158.208 28.828 156.72 30.708 154.6 30.708C153.68 30.708 153.024 30.396 152.56 29.932V33.7H149.712V22.572H152.44V23.284C152.912 22.74 153.592 22.356 154.592 22.356ZM153.864 25.004C153.048 25.004 152.456 25.644 152.456 26.532C152.456 27.42 153.048 28.06 153.864 28.06C154.68 28.06 155.272 27.42 155.272 26.532C155.272 25.644 154.68 25.004 153.864 25.004ZM164.123 22.356C166.251 22.356 167.739 24.236 167.739 26.524C167.739 28.828 166.251 30.708 164.131 30.708C163.211 30.708 162.555 30.396 162.091 29.932V33.7H159.243V22.572H161.971V23.284C162.443 22.74 163.123 22.356 164.123 22.356ZM163.395 25.004C162.579 25.004 161.987 25.644 161.987 26.532C161.987 27.42 162.579 28.06 163.395 28.06C164.211 28.06 164.803 27.42 164.803 26.532C164.803 25.644 164.211 25.004 163.395 25.004ZM171.622 18.98V30.5H168.774V18.98H171.622ZM175.857 22.572V30.5H173.009V22.572H175.857ZM174.424 18.62C175.345 18.62 176.057 19.332 176.057 20.252C176.057 21.172 175.345 21.884 174.424 21.884C173.505 21.884 172.793 21.172 172.793 20.252C172.793 19.332 173.505 18.62 174.424 18.62ZM181.203 22.356C182.787 22.356 183.979 23.092 184.763 24.276L182.427 25.748C182.091 25.244 181.699 25.004 181.139 25.004C180.443 25.004 179.795 25.54 179.795 26.532C179.795 27.532 180.419 28.06 181.115 28.06C181.651 28.06 182.083 27.82 182.427 27.308L184.771 28.804C183.995 29.972 182.787 30.708 181.203 30.708C178.667 30.708 176.883 28.98 176.883 26.532C176.883 24.084 178.667 22.356 181.203 22.356ZM193.574 22.572V30.5H190.838V29.804C190.366 30.332 189.678 30.708 188.678 30.708C186.558 30.708 185.07 28.828 185.07 26.524C185.07 24.236 186.558 22.356 188.686 22.356C189.678 22.356 190.366 22.74 190.838 23.284V22.572H193.574ZM189.414 25.004C188.598 25.004 188.006 25.644 188.006 26.532C188.006 27.42 188.598 28.06 189.414 28.06C190.23 28.06 190.822 27.42 190.822 26.532C190.822 25.644 190.23 25.004 189.414 25.004ZM201.338 22.572V25.084H198.762V26.94C198.762 27.796 199.21 28.06 199.826 28.06C200.266 28.06 200.746 27.788 201.114 27.58L202.066 29.788C201.274 30.34 200.482 30.708 199.09 30.708C196.834 30.708 195.914 29.324 195.914 27.38V25.084H194.474V22.572H195.914V20.3H198.762V22.572H201.338ZM205.653 22.572V30.5H202.805V22.572H205.653ZM204.221 18.62C205.141 18.62 205.853 19.332 205.853 20.252C205.853 21.172 205.141 21.884 204.221 21.884C203.301 21.884 202.589 21.172 202.589 20.252C202.589 19.332 203.301 18.62 204.221 18.62ZM211 22.356C213.488 22.356 215.32 24.124 215.32 26.532C215.32 28.94 213.488 30.708 211 30.708C208.512 30.708 206.68 28.94 206.68 26.532C206.68 24.124 208.512 22.356 211 22.356ZM211 25.004C210.184 25.004 209.592 25.644 209.592 26.532C209.592 27.42 210.184 28.06 211 28.06C211.816 28.06 212.408 27.42 212.408 26.532C212.408 25.644 211.816 25.004 211 25.004ZM221.208 22.356C222.848 22.356 224.04 23.516 224.04 25.34V30.5H221.192V26.236C221.192 25.444 220.816 25.02 220.192 25.02C219.624 25.02 219.2 25.396 219.2 26.252V30.5H216.352V22.572H219.064V23.388C219.512 22.7 220.216 22.356 221.208 22.356Z" fill="#F0F5FC"/>
</svg>
