<svg width="250" height="250" viewBox="0 0 250 250" fill="none" xmlns="http://www.w3.org/2000/svg">
<rect width="250" height="250" fill="#434343"/>
<path d="M61.3819 212.465C60.5976 211.52 61.1477 210.468 62.0393 211.208C62.5011 211.591 63.1126 211.474 64.3918 210.755C66.3749 209.642 67.3468 209.53 67.6585 210.38C67.8331 210.856 68.0029 210.856 68.5076 210.38C68.8545 210.052 69.6847 209.784 70.3524 209.784C71.5789 209.784 75.7583 208.37 76.3848 207.744C76.5714 207.557 77.1169 207.404 77.5969 207.404C78.077 207.404 78.4698 207.19 78.4698 206.928C78.4698 206.667 78.865 206.452 79.3482 206.452C80.4099 206.452 81.8024 205.013 81.8024 203.916C81.8024 203.478 82.0066 203.12 82.2562 203.12C83.3345 203.12 84.1165 199.715 84.4975 193.362C85.0081 184.846 84.9826 100.15 84.4664 90.0637C84.2233 85.3119 83.8281 81.9274 83.4157 81.065C83.0521 80.3048 82.7546 78.5502 82.7546 77.1659C82.7546 75.7815 82.5404 74.5165 82.2786 74.3548C82.0167 74.193 81.8025 73.3206 81.8025 72.4162C81.8025 71.5118 81.6132 70.3998 81.3819 69.9452C81.1506 69.4905 80.6778 68.4759 80.3312 67.6906C79.9847 66.9052 79.4148 65.9141 79.0649 65.4882C78.5268 64.8333 78.5466 64.6687 79.1936 64.4205C80.1751 64.0439 79.6493 63.1683 78.4417 63.1683C77.835 63.1683 77.5176 62.8413 77.5176 62.2162C77.5176 61.6926 77.3294 61.2642 77.0993 61.2642C76.8692 61.2642 76.4296 60.6573 76.1223 59.9157C75.815 59.174 74.2893 57.3063 72.7319 55.7653C71.1745 54.2243 69.9002 52.5819 69.9002 52.1155C69.9002 51.5815 69.5434 51.2676 68.9363 51.2676C68.3461 51.2676 67.7968 50.8061 67.5198 50.0775C67.2709 49.423 66.811 48.8874 66.4978 48.8874C65.5652 48.8874 64.2315 47.4215 64.5082 46.7005C64.6596 46.3059 64.4673 46.0312 64.0397 46.0312C63.6407 46.0312 63.228 46.29 63.1226 46.6063C63.0005 46.9726 62.4263 46.7135 61.5405 45.8922C60.7757 45.1832 59.8801 44.6031 59.5501 44.6031C59.2201 44.6031 58.9501 44.4133 58.9501 44.1813C58.9501 43.9494 58.2094 43.4081 57.304 42.9785C56.3987 42.549 55.5291 41.989 55.3715 41.7342C55.2141 41.4794 54.6693 41.271 54.1611 41.271C53.6529 41.271 53.237 41.0567 53.237 40.7949C53.237 40.5331 52.7141 40.3189 52.0749 40.3189C51.4357 40.3189 50.7803 40.1047 50.6185 39.8429C50.4567 39.5811 49.8013 39.3669 49.1621 39.3669C48.2399 39.3669 48 39.1212 48 38.1768C48 37.0327 48.115 36.9873 50.9756 37.0018C52.8338 37.0107 54.2983 37.2794 54.8754 37.7159C55.4154 38.1243 56.8384 38.4148 58.2989 38.4148C59.6736 38.4148 60.9308 38.629 61.0925 38.8908C61.2543 39.1526 62.0456 39.3669 62.8508 39.3669C63.656 39.3669 65.1966 39.5934 66.2744 39.8703C68.9086 40.5471 73.1389 41.7127 74.933 42.2562C75.7371 42.4998 76.8493 42.6991 77.4044 42.6991C77.9595 42.6991 78.5461 42.9133 78.7079 43.1751C78.8697 43.4369 79.6322 43.6511 80.4024 43.6511C81.1725 43.6511 81.8025 43.8653 81.8025 44.1272C81.8025 44.389 82.1775 44.6045 82.6357 44.6061C83.0939 44.6076 84.0825 44.929 84.8326 45.3202C85.5826 45.7113 86.4961 46.0313 86.8624 46.0313C87.2286 46.0313 87.9006 46.2205 88.3552 46.4518C88.8099 46.683 89.8246 47.134 90.6102 47.4539C93.4765 48.6212 95.1331 49.5224 95.1331 49.9144C95.1331 50.135 95.6358 50.3155 96.2502 50.3155C97.5577 50.3155 100.021 51.4637 100.846 52.4576C101.503 53.2493 104.048 54.5997 104.883 54.5997C105.19 54.5997 105.944 55.1352 106.559 55.7898C107.174 56.4443 107.921 56.9799 108.22 56.9799C109.039 56.9799 111.32 59.5382 111.32 60.4571C111.32 60.9587 111.697 61.2641 112.317 61.2641C112.913 61.2641 113.414 61.6465 113.563 62.2161C113.817 63.1885 114.653 63.5535 114.653 62.6922C114.653 61.7699 115.452 62.2312 116.096 63.5252C116.454 64.2452 117.506 65.6464 118.434 66.6389C119.813 68.114 119.994 68.522 119.424 68.8741C119.041 69.111 118.877 69.4541 119.059 69.6365C119.242 69.819 119.684 69.7253 120.041 69.4285C120.754 68.8376 121.318 69.1566 121.318 70.1499C121.318 70.5874 120.616 70.7899 119.057 70.8015C117.813 70.8105 116.26 71.1245 115.605 71.4987C114.951 71.8729 113.824 72.1866 113.102 72.1959C110.715 72.2265 109.205 74.1561 108.532 78.0373C107.664 83.0441 107.968 193.957 108.857 196.58C109.639 198.888 112.585 201.974 114.415 202.401C115.2 202.585 119.164 202.97 123.223 203.256C139.788 204.427 168.804 203.262 173.45 201.239C177.599 199.433 180.962 197.618 181.171 197.072C181.301 196.733 181.764 196.456 182.2 196.456C183.036 196.456 190.828 188.919 190.828 188.111C190.828 187.852 191.363 187.062 192.018 186.356C192.673 185.65 193.208 184.923 193.208 184.74C193.208 184.557 193.744 183.705 194.398 182.847C195.053 181.989 195.589 181.058 195.589 180.779C195.589 180.499 195.803 180.271 196.065 180.271C196.327 180.271 196.541 179.852 196.541 179.341C196.541 178.829 197.076 177.875 197.731 177.22C198.386 176.566 198.921 175.598 198.921 175.071C198.921 174.543 199.35 173.349 199.873 172.417C200.397 171.484 200.826 170.193 200.826 169.546C200.826 167.903 201.583 168.08 202.207 169.87C202.86 171.742 202.885 174.407 202.254 174.797C201.992 174.959 201.778 175.747 201.778 176.549C201.778 177.802 201.675 177.923 201.052 177.405C200.653 177.074 200.171 176.97 199.981 177.174C199.791 177.378 199.903 177.641 200.231 177.758C200.885 177.991 201.068 181.223 200.427 181.223C200.041 181.223 199.105 183.917 197.944 188.364C197.636 189.542 197.211 190.934 196.998 191.458C196.588 192.471 196.157 194.302 195.743 196.796C195.603 197.638 195.19 198.575 194.824 198.878C194.459 199.181 194.16 199.925 194.16 200.532C194.16 201.139 193.946 201.768 193.684 201.93C193.422 202.092 193.208 202.735 193.208 203.358C193.208 203.982 192.994 204.625 192.732 204.786C192.47 204.948 192.249 205.764 192.241 206.6C192.232 207.435 191.911 208.534 191.527 209.043C191.142 209.551 190.828 210.568 190.828 211.304V212.641H127.805C93.1424 212.641 64.1544 212.767 63.3867 212.92C62.438 213.11 61.7961 212.964 61.3819 212.465ZM112.084 62.3524C111.6 61.8685 111.201 62.597 111.598 63.2394C111.898 63.7247 112.01 63.7251 112.171 63.2409C112.282 62.9102 112.242 62.5106 112.084 62.3524Z" fill="#E4C996"/>
</svg>
