<svg width="185" height="48" viewBox="0 0 185 48" fill="none" xmlns="http://www.w3.org/2000/svg">
<g clip-path="url(#clip0_77_21)">
<path d="M7.21381 34.6356L0 25.831L0.779539 17.8096L13.9389 6.94981C13.9389 6.94981 16.1321 5.13778 15.6195 0.0281677L21.8369 10.8657L6.83678 23.2449L8.58807 23.6224L12.3773 28.2473L7.21381 34.6347V34.6356Z" fill="#F0F5FC"/>
<path d="M23.8848 13.3645L31.0986 22.169L30.3191 30.1904L17.1597 41.0502C17.1597 41.0502 14.9665 42.8622 15.4791 47.9718L9.26166 37.1343L24.2618 24.7552L22.5105 24.3776L18.7213 19.7527L23.8848 13.3653V13.3645Z" fill="#F0F5FC"/>
</g>
<path d="M54.9408 34H40.7599L44.7094 11.609H50.3071L47.2284 29.1486H55.8116L54.9408 34ZM73.0443 34H57.4329L61.3824 11.609H76.9939L76.1231 16.4604H66.1094L65.3941 20.6587H73.6663L72.7956 25.5101H64.5233L63.9014 29.1486H73.9151L73.0443 34ZM85.8317 28.5577L91.7404 11.609H97.8047L89.3147 34H79.3632L79.1144 11.609H85.2097L85.1164 28.5577H85.8317ZM112.404 34H96.792L100.742 11.609H116.353L115.482 16.4604H105.469L104.753 20.6587H113.025L112.155 25.5101H103.882L103.261 29.1486H113.274L112.404 34ZM130.167 34H115.986L119.935 11.609H125.533L122.454 29.1486H131.037L130.167 34ZM142.206 11.609L138.287 34H132.659L136.608 11.609H142.206ZM163.89 11.609L159.971 34H154.343L150.424 21.7472L148.31 34H142.681L146.63 11.609H152.415L156.271 23.0533L158.292 11.609H163.89ZM172.17 34.4354C169.226 34.4354 167.195 33.7512 166.075 32.3829C165.308 31.4292 164.924 30.123 164.924 28.4645C164.924 27.6974 165.007 26.8577 165.173 25.9455L166.262 19.7257C167.236 14.1695 170.636 11.3913 176.462 11.3913C178.867 11.3913 180.691 11.9096 181.935 12.9463C183.179 13.9621 183.801 15.3616 183.801 17.1446C183.801 17.8702 183.698 18.6062 183.49 19.3526C183.304 20.0989 183.117 20.6587 182.93 21.0319L182.62 21.5917H177.115C177.654 20.8453 177.924 19.9849 177.924 19.0105C177.924 17.1446 177.146 16.2116 175.591 16.2116C173.497 16.2116 172.243 17.4245 171.828 19.8501L170.771 25.8211C170.667 26.3808 170.615 26.9303 170.615 27.4693C170.615 28.8998 171.455 29.6151 173.134 29.6151C174.834 29.6151 175.923 28.7651 176.4 27.065H173.85L174.472 23.6131H182.713L182.215 26.2875L182.06 27.1894C181.189 32.0201 177.893 34.4354 172.17 34.4354Z" fill="#F0F5FC"/>
<defs>
<clipPath id="clip0_77_21">
<rect width="31.0986" height="47.9437" fill="white" transform="translate(0 0.0281677)"/>
</clipPath>
</defs>
</svg>
